<svg width="165" height="27" viewBox="0 0 165 27" fill="none" xmlns="http://www.w3.org/2000/svg">
<path d="M9.88999 26.1815C15.2486 26.1815 19.0246 23.3045 19.0246 18.5932C19.0246 13.4503 14.781 12.1197 10.7891 10.861C6.97693 9.71015 6.00591 8.88302 6.00591 7.33656C6.00591 5.89804 7.22865 4.81911 9.31454 4.81911C11.868 4.81911 13.2346 6.14976 14.1337 8.05585L18.3054 5.64628C16.6152 2.12183 13.4504 0 9.31454 0C4.99891 0 1.04295 2.73322 1.04295 7.48041C1.04295 12.2636 4.78313 13.8819 8.63126 14.9969C12.3714 16.0756 14.0618 16.7948 14.0618 18.665C14.0618 20.0676 13.0188 21.3266 10.0338 21.3266C6.905 21.3266 5.14276 19.8159 4.2437 17.4782L0 19.9599C1.36659 23.7002 4.74719 26.1815 9.88999 26.1815Z" fill="#F3F3F3"/>
<path d="M38.8452 0.503418H29.459V25.678H34.4216V17.4063H38.8452C43.7005 17.4063 47.4405 13.666 47.4405 8.95488C47.4405 4.24364 43.7005 0.503418 38.8452 0.503418ZM38.8452 12.767H34.4216V5.14274H38.8452C40.9671 5.14274 42.5137 6.76109 42.5137 8.95488C42.5137 11.1127 40.9671 12.767 38.8452 12.767Z" fill="#F3F3F3"/>
<path d="M77.2661 0.503418H71.6556L66.1892 11.0048L60.7228 0.503418H55.1123L63.7075 15.8597V25.678H68.6346V15.8597L77.2661 0.503418Z" fill="#F3F3F3"/>
<path d="M97.1649 26.1815C101.804 26.1815 105.868 23.8438 107.99 20.2475L103.71 17.7662C102.524 19.9599 100.042 21.3266 97.1649 21.3266C92.2378 21.3266 89.0013 17.9098 89.0013 13.0907C89.0013 8.23565 92.2378 4.81911 97.1649 4.81911C100.042 4.81911 102.487 6.18575 103.71 8.41549L107.99 5.93398C105.832 2.33765 101.768 0 97.1649 0C89.5407 0 84.0742 5.7182 84.0742 13.0907C84.0742 20.4274 89.5407 26.1815 97.1649 26.1815Z" fill="#F3F3F3"/>
<path d="M123.374 20.9308V15.2844H132.904V10.6092H123.374V5.25061H133.804V0.503418H118.411V25.678H133.983V20.9308H123.374Z" fill="#F3F3F3"/>
<path d="M158.065 15.2886H156.419L156.727 12.1323H164.094V7.79858H152.393L151.449 19.7959H157.777C159.539 19.7959 160.377 21.2569 160.377 22.4989C160.377 23.4573 160 24.7336 158.562 25.2671V25.518H164.411C164.788 24.6125 165 23.5977 165 22.4989C165 18.0496 162.368 15.2886 158.065 15.2886Z" fill="#F3F3F3"/>
<path d="M146.618 23.6804C146.618 25.2752 145.325 26.5677 143.73 26.5677C142.135 26.5677 140.843 25.2752 140.843 23.6804C140.843 22.0857 142.135 20.7927 143.73 20.7927C145.325 20.7927 146.618 22.0857 146.618 23.6804Z" fill="#21C3E8"/>
</svg>
